<?xml version="1.0" encoding="utf-8" ?><svg xmlns="http://www.w3.org/2000/svg" xmlns:xlink="http://www.w3.org/1999/xlink" width="1024" height="1024" viewBox="0 0 1024 1024"><path fill="#FEBBB9" d="M387.356 297.682C460.573 246.263 545.672 240.445 622.715 287.813C626.896 290.384 633.652 294.329 636.925 297.664C642.885 302.939 649.099 307.816 655.194 312.922L660.817 318.076C670.096 327.571 678.489 336.621 686.397 347.323C690.612 353.029 694.123 358.974 698.111 364.578C702.029 371.091 705.766 378.523 709.331 385.302C718.251 400.373 727.98 433.295 733.087 449.991C739.182 470.035 745.476 490.018 751.969 509.937L752.257 511.521C769.905 575.298 789.376 638.926 806.584 702.737C780.027 710.285 752.757 716.673 726.057 723.817C711.866 727.614 696.753 730.802 682.871 735.381C683.394 733.955 683.636 732.513 683.947 731.025L683.928 730.656C680.827 727.579 675.99 720.57 672.644 716.772C664.768 707.834 647.258 701.646 635.966 699.27C630.699 698.162 620.225 697.689 614.68 697.348C603.353 703.597 591.37 710.621 580.01 716.558C578.438 720.34 578.204 734.575 577.92 739.543L446.02 739.476C446.043 736.506 446.015 733.535 445.937 730.566C445.823 726.85 445.855 718.64 443.139 716.072C436.874 711.65 416.759 701.298 409.475 697.602C407.731 688.48 407.092 678.868 405.938 669.653C405.447 665.734 405.237 661.017 404.38 657.25C404.864 653.124 400.709 622.13 399.745 615.232C397.939 602.312 396.646 585.799 394.659 573.197L394.085 572.643C388.901 570.992 368.606 559.659 362.565 556.567L305.311 526.698C296.646 522.203 282.27 515.528 274.365 510.504L273.974 510.596L272.131 510.083C275.717 495.53 281.732 479.777 286.141 465.33C294.445 438.121 302.22 410.517 314.87 384.926C315.636 382.31 324.541 367.044 326.298 364.38C327.905 362.146 329.565 359.382 331.074 357.024C340.261 342.667 351.507 330.533 363.177 318.145C365.162 316.423 367.079 314.582 368.997 312.783C374.882 307.471 381.008 302.432 387.356 297.682Z"/><path fill="#6BCAAF" d="M387.356 297.682C460.573 246.263 545.672 240.445 622.715 287.813C626.896 290.384 633.652 294.329 636.925 297.664C642.885 302.939 649.099 307.816 655.194 312.922L660.817 318.076L605.351 401.613C593.73 419.113 582.041 435.759 571.424 453.922L571.596 454.548C566.687 452.683 561.419 452.66 556.523 451.313C526.618 443.09 495.643 443.15 465.792 451.652C462.602 452.561 455.036 453.532 452.521 454.786C445.599 466.102 440.439 478.531 434.447 490.346C420.717 517.418 408.239 544.958 394.194 571.885L394.085 572.643C388.901 570.992 368.606 559.659 362.565 556.567L305.311 526.698C296.646 522.203 282.27 515.528 274.365 510.504L273.974 510.596L272.131 510.083C275.717 495.53 281.732 479.777 286.141 465.33C294.445 438.121 302.22 410.517 314.87 384.926C315.636 382.31 324.541 367.044 326.298 364.38C327.905 362.146 329.565 359.382 331.074 357.024C340.261 342.667 351.507 330.533 363.177 318.145C365.162 316.423 367.079 314.582 368.997 312.783C374.882 307.471 381.008 302.432 387.356 297.682Z"/><path fill="#429588" d="M363.177 318.145L424.587 410.651L442.924 438.319C445.425 442.096 450.526 449.379 452.457 453.079L452.496 454.462L452.521 454.786C445.599 466.102 440.439 478.531 434.447 490.346C420.717 517.418 408.239 544.958 394.194 571.885L394.085 572.643C388.901 570.992 368.606 559.659 362.565 556.567L305.311 526.698C296.646 522.203 282.27 515.528 274.365 510.504L273.974 510.596L272.131 510.083C275.717 495.53 281.732 479.777 286.141 465.33C294.445 438.121 302.22 410.517 314.87 384.926C315.636 382.31 324.541 367.044 326.298 364.38C327.905 362.146 329.565 359.382 331.074 357.024C340.261 342.667 351.507 330.533 363.177 318.145Z"/><path fill="#327770" d="M274.365 510.504C277.76 508.756 289.4 505.092 293.22 503.924L319.626 495.833L420.836 464.311C426.437 462.585 448.54 454.778 452.496 454.462L452.521 454.786C445.599 466.102 440.439 478.531 434.447 490.346C420.717 517.418 408.239 544.958 394.194 571.885L394.085 572.643C388.901 570.992 368.606 559.659 362.565 556.567L305.311 526.698C296.646 522.203 282.27 515.528 274.365 510.504Z"/><path fill="#071221" d="M374.25 436.42C369.702 427.121 372.474 415.899 380.829 409.788C389.185 403.677 400.719 404.434 408.203 411.586C415.687 418.737 416.968 430.225 411.243 438.849C411.008 455.089 388.806 461.695 378.214 450.729C374.172 446.543 374.033 441.87 374.25 436.42Z"/><path fill="#327770" d="M374.25 436.42C377.614 443.298 384.402 447.851 392.043 448.352C399.683 448.854 407.008 445.229 411.243 438.849C411.008 455.089 388.806 461.695 378.214 450.729C374.172 446.543 374.033 441.87 374.25 436.42Z"/><path fill="#FAF8E9" d="M385.24 411.769C388.47 411.265 391.506 413.448 392.057 416.671C392.608 419.894 390.468 422.961 387.254 423.558C385.133 423.951 382.965 423.173 381.579 421.52C380.193 419.866 379.805 417.595 380.564 415.576C381.322 413.557 383.109 412.102 385.24 411.769Z"/><path fill="#89E0C4" d="M452.457 453.079C473.288 389.176 492.969 321.217 511.931 256.608L554.199 396.856L566.987 438.72C567.853 441.538 570.671 452.174 571.424 453.922L571.596 454.548C566.687 452.683 561.419 452.66 556.523 451.313C526.618 443.09 495.643 443.15 465.792 451.652C462.602 452.561 455.036 453.532 452.521 454.786L452.496 454.462L452.457 453.079Z"/><path fill="#327770" d="M660.817 318.076C670.096 327.571 678.489 336.621 686.397 347.323C690.612 353.029 694.123 358.974 698.111 364.578C702.029 371.091 705.766 378.523 709.331 385.302C718.251 400.373 727.98 433.295 733.087 449.991C739.182 470.035 745.476 490.018 751.969 509.937L752.257 511.521C769.905 575.298 789.376 638.926 806.584 702.737C780.027 710.285 752.757 716.673 726.057 723.817C711.866 727.614 696.753 730.802 682.871 735.381C683.394 733.955 683.636 732.513 683.947 731.025L683.928 730.656C680.827 727.579 675.99 720.57 672.644 716.772C664.768 707.834 647.258 701.646 635.966 699.27C630.699 698.162 620.225 697.689 614.68 697.348C615.836 689.016 617.731 677.206 617.996 668.861C617.793 663.701 619.551 650.321 620.246 644.814C622.374 627.954 625.009 610.931 627.105 594.066C627.679 589.442 629.184 577.638 628.82 573.461L629.686 572.345L630.07 572.248C618.479 546.587 604.645 521.318 592.637 495.79C586.203 482.111 579.165 468.002 571.755 454.865L571.596 454.548L571.424 453.922C582.041 435.759 593.73 419.113 605.351 401.613L660.817 318.076Z"/><path fill="#429588" d="M660.817 318.076C670.096 327.571 678.489 336.621 686.397 347.323C690.612 353.029 694.123 358.974 698.111 364.578C702.029 371.091 705.766 378.523 709.331 385.302C718.251 400.373 727.98 433.295 733.087 449.991C739.182 470.035 745.476 490.018 751.969 509.937C747.04 509.982 718.731 500.352 712.221 498.295L621.56 469.8L589.683 459.645C586.42 458.606 574.289 454.131 571.755 454.865L571.596 454.548L571.424 453.922C582.041 435.759 593.73 419.113 605.351 401.613L660.817 318.076Z"/><path fill="#071221" d="M613.768 439.842C607.533 431.482 608.246 419.843 615.455 412.306C622.663 404.77 634.26 403.54 642.888 409.397C651.517 415.254 654.655 426.486 650.312 435.967C651.228 439.474 650.334 444.949 648.508 448.051C640.163 462.229 615.021 456.022 613.768 439.842Z"/><path fill="#327770" d="M650.312 435.967C651.228 439.474 650.334 444.949 648.508 448.051C640.163 462.229 615.021 456.022 613.768 439.842C618.278 445.889 625.643 449.109 633.144 448.314C640.645 447.518 647.171 442.825 650.312 435.967Z"/><path fill="#FAF8E9" d="M621.521 412.23C624.585 411.242 627.873 412.907 628.891 415.961C629.908 419.015 628.275 422.319 625.231 423.365C622.145 424.426 618.786 422.766 617.755 419.67C616.723 416.574 618.416 413.232 621.521 412.23Z"/><path fill="#1C4F54" d="M752.257 511.521C769.905 575.298 789.376 638.926 806.584 702.737C780.027 710.285 752.757 716.673 726.057 723.817C711.866 727.614 696.753 730.802 682.871 735.381C683.394 733.955 683.636 732.513 683.947 731.025L683.928 730.656C685.453 727.451 687.828 719.157 688.941 715.511L696.922 689.243L731.628 574.705L743.163 536.755C744.579 532.138 749.682 513.937 752.257 511.521Z"/><path fill="#1C4F54" d="M630.07 572.248C637.822 569.545 652.272 561.05 660.093 556.945L717.301 527.296C725.241 523.168 741.994 513.9 749.554 510.928C735.116 524.296 716.181 548.718 703.3 564.585L638.022 644.963C634.997 648.688 619.261 666.139 617.996 668.861C617.793 663.701 619.551 650.321 620.246 644.814C622.374 627.954 625.009 610.931 627.105 594.066C627.679 589.442 629.184 577.638 628.82 573.461L629.686 572.345L630.07 572.248Z"/><path fill="#15373D" d="M394.659 573.197C408.939 581.45 423.175 590.776 437.97 597.844C474.993 615.488 517.106 619.306 556.697 608.606C576.557 603.294 592.075 595.534 609.739 585.101C616.115 581.335 622.78 577.805 628.82 573.461C629.184 577.638 627.679 589.442 627.105 594.066C625.009 610.931 622.374 627.954 620.246 644.814C619.551 650.321 617.793 663.701 617.996 668.861C617.731 677.206 615.836 689.016 614.68 697.348C603.353 703.597 591.37 710.621 580.01 716.558C578.438 720.34 578.204 734.575 577.92 739.543L446.02 739.476C446.043 736.506 446.015 733.535 445.937 730.566C445.823 726.85 445.855 718.64 443.139 716.072C436.874 711.65 416.759 701.298 409.475 697.602C407.731 688.48 407.092 678.868 405.938 669.653C405.447 665.734 405.237 661.017 404.38 657.25C404.864 653.124 400.709 622.13 399.745 615.232C397.939 602.312 396.646 585.799 394.659 573.197Z"/><path fill="#DD8181" d="M551.755 557.839C573.013 560.718 593.273 565.959 614.381 569.56C619.495 570.432 624.602 571.312 629.686 572.345L628.82 573.461C622.78 577.805 616.115 581.335 609.739 585.101C592.075 595.534 576.557 603.294 556.697 608.606C517.106 619.306 474.993 615.488 437.97 597.844C423.175 590.776 408.939 581.45 394.659 573.197L394.085 572.643L394.194 571.885C398.827 572.196 409.897 569.479 414.926 568.663C433.036 565.725 453.402 560.026 471.461 558.062C469.98 563.065 471.548 566.709 476.843 566.598C487.132 566.383 504.092 564.804 511.838 558.213C519.508 563.691 526.844 564.317 535.935 565.687C542.317 566.648 556.869 569.263 551.755 557.839Z"/><path fill="#071221" d="M466.904 454.701C484.3 453.865 502.124 454.159 519.585 454.205C529.398 454.231 548.143 453.477 557.287 455.099C579.388 469.029 563.48 479.998 551.543 493.216C540.906 504.996 525.869 516.899 516.497 529.425C517.168 534.438 515.755 548.147 519.817 550.618C528.998 556.204 541.779 553.409 551.755 557.839C556.869 569.263 542.317 566.648 535.935 565.687C526.844 564.317 519.508 563.691 511.838 558.213C504.092 564.804 487.132 566.383 476.843 566.598C471.548 566.709 469.98 563.065 471.461 558.062C474.812 556.781 478.288 555.856 481.832 555.302C506.153 551.453 506.814 556.972 507.456 528.96C496.085 517.203 484.157 505.777 472.902 493.888C468.424 488.392 460.897 482.521 457.683 476.164C452.554 466.02 458.801 458.994 466.904 454.701Z"/><path fill="#15373D" d="M466.904 454.701C484.3 453.865 502.124 454.159 519.585 454.205C529.398 454.231 548.143 453.477 557.287 455.099C554.792 458.461 551.263 462.534 550.508 466.509C550.097 468.514 548.563 470.102 546.573 470.582C545.917 470.666 544.31 470.848 543.838 471.306C533.064 481.766 521.235 497.748 511.735 509.115C497.84 492.253 479.379 471.951 466.904 454.701Z"/><path fill="#FAF8E9" d="M546.573 470.582C544.29 471.132 541.918 470.109 540.752 468.071C539.586 466.032 539.906 463.469 541.538 461.78C543.169 460.091 545.72 459.683 547.798 460.778C549.875 461.873 550.979 464.208 550.508 466.509C550.097 468.514 548.563 470.102 546.573 470.582Z"/><path fill="#327770" d="M271.825 511.089L272.131 510.083L273.974 510.596L274.365 510.504C282.27 515.528 296.646 522.203 305.311 526.698L362.565 556.567C368.606 559.659 388.901 570.992 394.085 572.643L394.659 573.197C396.646 585.799 397.939 602.312 399.745 615.232C400.709 622.13 404.864 653.124 404.38 657.25C405.237 661.017 405.447 665.734 405.938 669.653C407.092 678.868 407.731 688.48 409.475 697.602C380.555 698.622 356.062 705.106 340.343 731.511L340.001 731.464L340.773 734.894C316.981 728.492 293.153 722.223 269.291 716.088C253.209 711.854 233.409 706.093 217.405 702.75L249.3 590.662C256.762 564.827 265.23 537.119 271.825 511.089Z"/><path fill="#1C4F54" d="M217.405 702.75L249.3 590.662C256.762 564.827 265.23 537.119 271.825 511.089C273.91 513.3 277.136 525.666 278.389 529.534C283.9 546.504 289.184 563.547 294.24 580.658L340.001 731.464L340.773 734.894C316.981 728.492 293.153 722.223 269.291 716.088C253.209 711.854 233.409 706.093 217.405 702.75Z"/><path fill="#1C4F54" d="M274.365 510.504C282.27 515.528 296.646 522.203 305.311 526.698L362.565 556.567C368.606 559.659 388.901 570.992 394.085 572.643L394.659 573.197C396.646 585.799 397.939 602.312 399.745 615.232C400.709 622.13 404.864 653.124 404.38 657.25C404.054 658.518 404.391 660.8 404.262 662.561C402.223 662.017 374.697 627.811 370.926 623.277L318.379 560.61C305.52 545.193 293.28 529.061 278.721 515.173C277.275 513.794 274.602 512.166 273.974 510.596L274.365 510.504Z"/><path fill="#327770" d="M314.87 384.926C284.807 374.391 267.061 346.491 273.04 314.743C276.068 298.699 285.413 284.543 298.976 275.454C312.618 266.297 329.356 262.98 345.459 266.242C364.981 270.196 376.73 281.546 387.356 297.682C381.008 302.432 374.882 307.471 368.997 312.783C367.079 314.582 365.162 316.423 363.177 318.145C351.507 330.533 340.261 342.667 331.074 357.024C329.565 359.382 327.905 362.146 326.298 364.38C324.541 367.044 315.636 382.31 314.87 384.926Z"/><path fill="#071221" d="M326.298 364.38C316.717 360.651 309.47 357.138 303.542 348.285C298.075 340.09 296.097 330.055 298.047 320.4C299.897 310.818 305.523 302.384 313.66 296.997C322.17 291.448 332.546 289.532 342.477 291.677C355.786 294.536 361.966 301.987 368.997 312.783C367.079 314.582 365.162 316.423 363.177 318.145C351.507 330.533 340.261 342.667 331.074 357.024C329.565 359.382 327.905 362.146 326.298 364.38Z"/><path fill="#327770" d="M636.925 297.664C644.647 284.039 657.996 271.77 673.33 267.562C689.63 262.92 707.112 265.025 721.843 273.404C735.705 281.5 745.784 294.77 749.864 310.295C754.124 326.408 751.717 343.558 743.186 357.875C734.775 372.016 724.148 379.185 709.331 385.302C705.766 378.523 702.029 371.091 698.111 364.578C694.123 358.974 690.612 353.029 686.397 347.323C678.489 336.621 670.096 327.571 660.817 318.076L655.194 312.922C649.099 307.816 642.885 302.939 636.925 297.664Z"/><path fill="#071221" d="M655.194 312.922C661.768 302.33 668.587 294.674 681.274 291.757C691.046 289.461 701.332 291.227 709.778 296.652C718.069 301.947 723.877 310.359 725.891 319.988C727.891 329.761 725.932 339.928 720.443 348.258C714.784 356.813 707.446 361.041 698.111 364.578C694.123 358.974 690.612 353.029 686.397 347.323C678.489 336.621 670.096 327.571 660.817 318.076L655.194 312.922Z"/><path fill="#DD8181" d="M614.68 697.348C620.225 697.689 630.699 698.162 635.966 699.27C647.258 701.646 664.768 707.834 672.644 716.772C675.99 720.57 680.827 727.579 683.928 730.656L683.947 731.025C683.636 732.513 683.394 733.955 682.871 735.381C680.374 737.862 678.168 740.401 675.866 743.058C668.335 751.753 659.045 759.41 650.395 766.97C648.566 760.507 645.463 750.003 644.524 743.512C637.878 746.62 634.212 749.491 628.081 752.884C623.074 756.451 619.316 761.614 615.421 766.397C614.166 760.001 611.351 750.343 609.738 743.616C606.069 746.32 593.659 756.748 590.224 756.741C587.383 756.717 583.927 763.871 582.463 766.366C580.366 757.953 578.316 748.214 577.92 739.543C578.204 734.575 578.438 720.34 580.01 716.558C591.37 710.621 603.353 703.597 614.68 697.348Z"/><path fill="#F0596F" d="M608.264 715.747C607.711 725.666 608.453 733.854 609.738 743.616C606.069 746.32 593.659 756.748 590.224 756.741C587.383 756.717 583.927 763.871 582.463 766.366C580.366 757.953 578.316 748.214 577.92 739.543C578.204 734.575 578.438 720.34 580.01 716.558C584.879 717.589 601.97 717.704 606.981 716.639L608.264 715.747Z"/><path fill="#071221" d="M608.264 715.747C607.711 725.666 608.453 733.854 609.738 743.616C606.069 746.32 593.659 756.748 590.224 756.741C590.772 755.577 594.694 750.339 595.537 749.283C606.856 735.112 607.013 733.91 606.981 716.639L608.264 715.747Z"/><path fill="#F0596F" d="M608.264 715.747C608.56 717.717 608.255 718.076 609.365 719.277C613.145 720.658 642.909 728.041 645.914 727.945L646.593 727.309C644.403 734.568 644.271 735.905 644.524 743.512C637.878 746.62 634.212 749.491 628.081 752.884C623.074 756.451 619.316 761.614 615.421 766.397C614.166 760.001 611.351 750.343 609.738 743.616C608.453 733.854 607.711 725.666 608.264 715.747Z"/><path fill="#071221" d="M646.593 727.309C644.403 734.568 644.271 735.905 644.524 743.512C637.878 746.62 634.212 749.491 628.081 752.884C630.133 747.342 641.721 733.889 645.914 727.945L646.593 727.309Z"/><path fill="#F0596F" d="M646.593 727.309C647.016 726.11 647.103 725.367 648.061 724.585C649.183 725.065 653.628 727.302 654.486 727.411C662.044 728.376 676.901 731.105 683.947 731.025C683.636 732.513 683.394 733.955 682.871 735.381C680.374 737.862 678.168 740.401 675.866 743.058C668.335 751.753 659.045 759.41 650.395 766.97C648.566 760.507 645.463 750.003 644.524 743.512C644.271 735.905 644.403 734.568 646.593 727.309Z"/><path fill="#DD8181" d="M409.475 697.602C416.759 701.298 436.874 711.65 443.139 716.072C445.855 718.64 445.823 726.85 445.937 730.566C446.015 733.535 446.043 736.506 446.02 739.476C445.294 749.892 444.193 755.916 441.721 765.909C439.417 762.286 437.104 758.396 434.326 755.148L433.499 755.067L432.754 755.576C429.889 755.948 419.329 746.385 414.259 743.894C412.354 751.111 411.048 759.062 409.013 766.116C405.646 761.915 401.341 756.15 397.004 753.164C390.366 749.162 386.912 746.528 379.636 743.37C377.586 750.771 375.737 759.037 373.913 766.527C367.079 760.465 359.848 754.817 353.204 748.433C349.305 744.685 344.768 737.889 340.773 734.894L340.001 731.464L340.343 731.511C356.062 705.106 380.555 698.622 409.475 697.602Z"/><path fill="#F0596F" d="M443.139 716.072C445.855 718.64 445.823 726.85 445.937 730.566C446.015 733.535 446.043 736.506 446.02 739.476C445.294 749.892 444.193 755.916 441.721 765.909C439.417 762.286 437.104 758.396 434.326 755.148L433.499 755.067L432.754 755.576C429.889 755.948 419.329 746.385 414.259 743.894C415.872 733.438 415.282 726.472 416.285 716.866L416.267 716.113L416.766 716.751C421.78 718.351 437.969 717.523 443.139 716.072Z"/><path fill="#071221" d="M416.285 716.866L416.267 716.113L416.766 716.751C417.622 720.501 417.476 729.661 417.534 733.924C420.769 738.435 430.027 751.719 433.499 755.067L432.754 755.576C429.889 755.948 419.329 746.385 414.259 743.894C415.872 733.438 415.282 726.472 416.285 716.866Z"/><path fill="#F0596F" d="M378.602 728.361C390.096 725.825 402.043 722.262 413.553 719.51C415.429 719.061 415.482 718.444 416.285 716.866C415.282 726.472 415.872 733.438 414.259 743.894C412.354 751.111 411.048 759.062 409.013 766.116C405.646 761.915 401.341 756.15 397.004 753.164C390.366 749.162 386.912 746.528 379.636 743.37C379.979 738.223 379.778 732.308 376.937 727.828C376.229 726.712 375.95 726.266 375.656 724.96L375.891 724.388C377.033 725.864 377.621 726.766 378.602 728.361Z"/><defs><linearGradient id="gradient_0" gradientUnits="userSpaceOnUse" x1="386.99402" y1="734.70898" x2="380.69211" y2="741.84497"><stop offset="0" stop-color="#1E0F19"/><stop offset="1" stop-color="#041226"/></linearGradient></defs><path fill="url(#gradient_0)" d="M375.656 724.96L375.891 724.388C377.033 725.864 377.621 726.766 378.602 728.361C383.153 734.524 394.116 747.607 397.004 753.164C390.366 749.162 386.912 746.528 379.636 743.37C379.979 738.223 379.778 732.308 376.937 727.828C376.229 726.712 375.95 726.266 375.656 724.96Z"/><path fill="#F0596F" d="M375.656 724.96C375.95 726.266 376.229 726.712 376.937 727.828C379.778 732.308 379.979 738.223 379.636 743.37C377.586 750.771 375.737 759.037 373.913 766.527C367.079 760.465 359.848 754.817 353.204 748.433C349.305 744.685 344.768 737.889 340.773 734.894L340.001 731.464L340.343 731.511C348.039 730.917 366.152 728.199 374.238 726.449C374.794 725.865 375.267 725.369 375.656 724.96Z"/></svg>